<svg width="25" height="24" viewBox="0 0 25 24" fill="none" xmlns="http://www.w3.org/2000/svg">
<path d="M7.49546 18.3579V16.9085H14.4763C15.6033 16.9085 16.5737 16.5339 17.3866 15.7857C18.2005 15.0365 18.6064 14.1057 18.6064 12.9955C18.6064 11.8842 18.1995 10.9544 17.3855 10.2052C16.5737 9.45704 15.6033 9.08244 14.4763 9.08244H7.34938L10.1042 11.8362L9.08885 12.8504L4.59668 8.35826L9.08781 3.86504L10.1031 4.8793L7.34833 7.63409H14.4502C15.98 7.63409 17.2969 8.14852 18.3998 9.17843C19.5028 10.2094 20.0548 11.4824 20.0548 12.9955C20.0548 14.5085 19.5028 15.7816 18.3998 16.8115C17.2969 17.8424 15.98 18.3579 14.4502 18.3579H7.49546Z" fill="#669AFF"/>
</svg>
