<svg width="25" height="24" viewBox="0 0 25 24" fill="none" xmlns="http://www.w3.org/2000/svg">
<g clip-path="url(#clip0_9_1113)">
<mask id="mask0_9_1113" style="mask-type:luminance" maskUnits="userSpaceOnUse" x="0" y="0" width="25" height="24">
<path d="M0.963257 0H24.1514V23.1882H0.963257V0Z" fill="white"/>
</mask>
<g mask="url(#mask0_9_1113)">
<path d="M18.9831 16.7635L19.6593 16.0863L17.8718 14.2988V11.5941H16.9055V14.6859L18.9831 16.7624V16.7635Z" fill="#669AFF"/>
<path fill-rule="evenodd" clip-rule="evenodd" d="M4.24294 3.47478C4.09593 3.41194 3.93563 3.38655 3.77641 3.4009C3.61718 3.41524 3.464 3.46887 3.33059 3.55698C3.19719 3.64509 3.08773 3.76492 3.01203 3.90574C2.93633 4.04655 2.89676 4.20395 2.89685 4.36383V18.8243C2.89693 18.9841 2.93663 19.1414 3.0124 19.2821C3.08818 19.4228 3.19765 19.5424 3.33103 19.6304C3.46441 19.7184 3.61752 19.772 3.77667 19.7863C3.93581 19.8006 4.09602 19.7752 4.24294 19.7123L11.0182 16.8094C11.3572 17.7395 11.899 18.5825 12.6043 19.2772C13.9108 20.5826 15.5417 21.2557 17.3887 21.2557C19.2356 21.2557 20.8676 20.5826 22.173 19.2783L22.1741 19.2772C23.4784 17.9708 24.1525 16.3398 24.1525 14.4929C24.1525 12.6459 23.4795 11.015 22.1741 9.70852C20.8666 8.40417 19.2356 7.72904 17.3887 7.72904C16.5737 7.72904 15.8005 7.86052 15.0784 8.1193L4.24294 3.47583V3.47478ZM10.6259 14.4939C10.6259 14.6212 10.629 14.7464 10.6353 14.8717L4.82833 17.3603V13.0957L11.2217 11.6755C10.8214 12.56 10.6181 13.521 10.6259 14.4918V14.4939ZM12.6043 9.70748C12.069 10.2372 11.6254 10.8522 11.2916 11.5273L4.82833 10.0915V5.82887L13.0071 9.33496C12.8704 9.45287 12.7348 9.57704 12.6043 9.70748ZM17.3876 19.3231C16.052 19.3231 14.9125 18.8536 13.9702 17.9113C13.028 16.969 12.5574 15.8296 12.5574 14.4929C12.5574 13.1562 13.028 12.0167 13.9702 11.0744C14.9125 10.1322 16.0509 9.66157 17.3876 9.66157C18.7243 9.66157 19.8638 10.1322 20.8061 11.0744C21.7483 12.0167 22.2189 13.1562 22.2189 14.4929C22.2189 15.8285 21.7483 16.969 20.8061 17.9113C19.8638 18.8525 18.7243 19.3231 17.3876 19.3231Z" fill="#669AFF"/>
</g>
</g>
<defs>
<clipPath id="clip0_9_1113">
<rect width="24" height="24" fill="white" transform="translate(0.5)"/>
</clipPath>
</defs>
</svg>
