<svg width="25" height="24" viewBox="0 0 25 24" fill="none" xmlns="http://www.w3.org/2000/svg">
<path fill-rule="evenodd" clip-rule="evenodd" d="M14.9595 13.7729H15.7223L20.5431 18.6042L19.1031 20.0442L14.2729 15.2223V14.4584L14.012 14.1882C12.8757 15.1679 11.425 15.7064 9.9247 15.7054C8.68279 15.7052 7.46883 15.3367 6.4363 14.6466C5.40378 13.9565 4.59906 12.9758 4.1239 11.8284C3.64874 10.681 3.52447 9.41842 3.7668 8.20038C4.00914 6.98235 4.6072 5.86352 5.48536 4.98535C6.36352 4.10719 7.48235 3.50913 8.70039 3.2668C9.91842 3.02446 11.181 3.14873 12.3284 3.6239C13.4758 4.09906 14.4566 4.90378 15.1466 5.9363C15.8367 6.96882 16.2052 8.18279 16.2054 9.42469C16.2054 10.9795 15.6357 12.4101 14.6882 13.512L14.9595 13.7729ZM5.57757 9.42469C5.57661 9.99594 5.68838 10.5618 5.90648 11.0897C6.12457 11.6177 6.44471 12.0974 6.84854 12.5015C7.25238 12.9055 7.73196 13.2259 8.25983 13.4442C8.78769 13.6626 9.35346 13.7746 9.9247 13.7739C10.4961 13.7749 11.0621 13.663 11.5902 13.4448C12.1183 13.2266 12.5982 12.9063 13.0022 12.5022C13.4063 12.0981 13.7266 11.6183 13.9448 11.0902C14.163 10.5621 14.2749 9.99611 14.2739 9.42469C14.2746 8.85354 14.1626 8.28786 13.9443 7.76007C13.726 7.23227 13.4057 6.75273 13.0018 6.34891C12.5979 5.94509 12.1183 5.62493 11.5904 5.40677C11.0626 5.18861 10.4969 5.07674 9.92574 5.07756C9.35468 5.07688 8.78908 5.18885 8.26136 5.40707C7.73363 5.62529 7.25413 5.94547 6.85033 6.34928C6.44652 6.75308 6.12634 7.23258 5.90812 7.76031C5.6899 8.28804 5.57688 8.85363 5.57757 9.42469Z" fill="#669AFF"/>
</svg>
